<svg width="32" height="32" viewBox="0 0 32 32" fill="none" xmlns="http://www.w3.org/2000/svg">
<g clip-path="url(#clip0_1138_2527)">
<path d="M19.8099 22.855V21.335H18.2899V22.855H10.6699V21.335H9.14988V16.765H10.6699V15.235H18.2899V16.765H19.8099V15.235H30.4799V16.765H31.9999V13.715H25.9099V12.2H24.3899V13.72H15.2399V12.2H13.7199V10.67H15.2399V9.14498H24.3899V10.665H25.9099V6.09998H24.3899V7.61998H15.2399V6.09998H13.7199V7.61998H1.52988V9.14998H-0.00012207V13.72H1.52988V15.24H3.04988V16.77H4.57988V15.24H7.61988V16.77H6.09988V21.34H7.61988V22.86H4.57988V21.34H3.04988V22.86H1.52988V24.39H-0.00012207V28.96H1.52988V30.48H31.9999V27.43H30.4799V28.96H18.2899V27.43H16.7699V25.91H18.2899V24.39H30.4799V25.91H31.9999V21.34H30.4799V22.86L19.8099 22.855ZM6.09988 12.2H3.04988V10.67H6.09988V12.2ZM13.7199 25.91H12.1999V27.43H13.7199V28.96H12.1999V27.43H10.6699V25.91H12.1999V24.39H13.7199V25.91Z" fill="#000001"/>
<path d="M30.4799 16.765H28.9599V21.335H30.4799V16.765Z" fill="#000001"/>
<path d="M30.4799 25.905H19.8099V27.425H30.4799V25.905Z" fill="#000001"/>
<path d="M27.4299 19.8051H21.3399V21.3351H27.4299V19.8051Z" fill="#000001"/>
<path d="M27.4299 16.765H21.3399V18.285H27.4299V16.765Z" fill="#000001"/>
<path d="M24.3899 10.665H16.7699V12.195H24.3899V10.665Z" fill="#000001"/>
<path d="M24.3899 4.57507H16.7699V6.09507H24.3899V4.57507Z" fill="#000001"/>
<path d="M18.2899 16.765H16.7699V21.335H18.2899V16.765Z" fill="#000001"/>
<path d="M13.7199 4.57507H12.1999V6.09507H13.7199V4.57507Z" fill="#000001"/>
<path d="M6.09988 4.57507H3.04988V6.09507H6.09988V4.57507Z" fill="#000001"/>
<path d="M13.7199 3.04502V4.57502H15.2399V3.04502H24.3899V4.57502H25.9099V1.52502H1.52988V3.04502H13.7199Z" fill="#000001"/>
<path d="M3.04988 16.765H1.52988V21.335H3.04988V16.765Z" fill="#000001"/>
<path d="M1.52988 3.04504H-0.00012207V7.61504H1.52988V3.04504Z" fill="#000001"/>
</g>
<defs>
<clipPath id="clip0_1138_2527">
<rect width="32" height="32" fill="white"/>
</clipPath>
</defs>
</svg>
