<svg width="33" height="32" viewBox="0 0 33 32" fill="none" xmlns="http://www.w3.org/2000/svg">
<path d="M31.3252 22.8601H26.7552V21.3301H28.2752V19.8101H5.42524V21.3301H6.95024V22.8601H2.37524V32.0001H31.3252V22.8601ZM8.46524 21.3301H25.2252V22.8601H8.46524V21.3301ZM29.8052 30.4801H3.89524V24.3801H29.8052V30.4801Z" fill="#000001"/>
<path d="M29.8053 1.52002H28.2753V19.81H29.8053V1.52002Z" fill="#000001"/>
<path d="M26.7553 25.9H19.1353V27.43H26.7553V25.9Z" fill="#000001"/>
<path d="M20.6553 10.67H19.1353V12.19H20.6553V10.67Z" fill="#000001"/>
<path d="M20.6553 7.62H19.1353V9.14H20.6553V7.62Z" fill="#000001"/>
<path d="M19.1352 12.1899H14.5652V13.7099H19.1352V12.1899Z" fill="#000001"/>
<path d="M14.5652 10.67H13.0352V12.19H14.5652V10.67Z" fill="#000001"/>
<path d="M14.5652 7.62H13.0352V9.14H14.5652V7.62Z" fill="#000001"/>
<path d="M6.95026 18.29H26.7603V3.05005H6.95026V18.29ZM8.46526 4.57005H25.2253V16.76H8.46526V4.57005Z" fill="#000001"/>
<path d="M9.99525 25.9H6.94525V28.95H9.99525V25.9Z" fill="#000001"/>
<path d="M28.2752 0H5.42523V1.52H28.2752V0Z" fill="#000001"/>
<path d="M5.42526 1.52002H3.89526V19.81H5.42526V1.52002Z" fill="#000001"/>
</svg>
